<svg width="376" height="71" viewBox="0 0 376 71" fill="none" xmlns="http://www.w3.org/2000/svg">
<g filter="url(#filter0_d_1_15)">
<path d="M369.645 44.714H344.017V45.144C344.017 48.6413 345.135 50.39 347.371 50.39C348.001 50.39 348.775 49.9313 349.693 49.014C350.61 48.0967 351.613 47.638 352.703 47.638H368.957C370.218 47.638 370.849 48.2687 370.849 49.53C370.849 52.3393 368.727 55.2633 364.485 58.302C360.299 61.3407 354.595 62.86 347.371 62.86C340.204 62.86 334.327 60.9966 329.741 57.27C325.211 53.486 322.947 48.2973 322.947 41.704V37.576C322.947 31.3267 325.269 26.2526 329.913 22.354C334.557 18.398 340.634 16.42 348.145 16.42C355.713 16.42 361.561 18.6273 365.689 23.042C369.874 27.4567 371.967 33.0467 371.967 39.812V42.392C371.967 43.0227 371.737 43.5673 371.279 44.026C370.82 44.4847 370.275 44.714 369.645 44.714ZM350.897 33.62C350.897 30.18 349.75 28.46 347.457 28.46C345.163 28.46 344.017 30.18 344.017 33.62V33.964H350.897V33.62Z" fill="white"/>
</g>
<g filter="url(#filter1_d_1_15)">
<path d="M315.034 62H299.64C299.009 62 298.465 61.7707 298.006 61.312C297.547 60.8533 297.318 60.3087 297.318 59.678V3.262C297.318 2.63134 297.547 2.08667 298.006 1.628C298.465 1.16934 299.009 0.940002 299.64 0.940002H315.034C315.665 0.940002 316.209 1.16934 316.668 1.628C317.127 2.08667 317.356 2.63134 317.356 3.262V59.678C317.356 60.3087 317.127 60.8533 316.668 61.312C316.209 61.7707 315.665 62 315.034 62Z" fill="white"/>
</g>
<g filter="url(#filter2_d_1_15)">
<path d="M291.733 36.2V42.994C291.733 49.7593 290.041 54.776 286.659 58.044C283.276 61.2547 278.861 62.86 273.415 62.86C267.968 62.86 263.754 60.9393 260.773 57.098V59.678C260.773 60.3087 260.543 60.8533 260.085 61.312C259.626 61.7707 259.081 62 258.451 62H243.831C243.2 62 242.655 61.7707 242.197 61.312C241.738 60.8533 241.509 60.3087 241.509 59.678V3.262C241.509 2.63134 241.738 2.08667 242.197 1.628C242.655 1.16934 243.2 0.940002 243.831 0.940002H259.741C260.371 0.940002 260.916 1.16934 261.375 1.628C261.833 2.08667 262.063 2.63134 262.063 3.262V20.462C265.044 17.7673 269 16.42 273.931 16.42C278.919 16.42 283.133 18.1113 286.573 21.494C290.013 24.8767 291.733 29.7787 291.733 36.2ZM262.063 42.478C262.063 45.8033 263.496 47.466 266.363 47.466C269.229 47.466 270.663 45.8033 270.663 42.478V36.802C270.663 33.4767 269.229 31.814 266.363 31.814C263.668 31.814 262.235 33.2473 262.063 36.114V42.478Z" fill="white"/>
</g>
<g filter="url(#filter3_d_1_15)">
<path d="M187.369 49.186C187.369 41.446 193.647 36.4867 206.203 34.308L215.319 32.846C215.319 31.126 215.176 29.9793 214.889 29.406C214.602 28.7753 213.914 28.46 212.825 28.46C211.793 28.46 210.761 28.9186 209.729 29.836C208.697 30.7533 207.722 31.212 206.805 31.212H192.185C190.924 31.212 190.293 30.61 190.293 29.406C190.293 28.1446 190.723 26.826 191.583 25.45C192.5 24.0167 193.79 22.612 195.453 21.236C197.173 19.86 199.552 18.7133 202.591 17.796C205.687 16.8787 209.127 16.42 212.911 16.42C220.594 16.42 226.356 18.0253 230.197 21.236C234.038 24.4466 235.959 29.0333 235.959 34.996V59.678C235.959 60.3087 235.73 60.8533 235.271 61.312C234.812 61.7706 234.268 62 233.637 62H218.587C217.956 62 217.412 61.7706 216.953 61.312C216.494 60.8533 216.265 60.3087 216.265 59.678V57.27C213.57 60.9966 209.643 62.86 204.483 62.86C199.323 62.86 195.166 61.57 192.013 58.99C188.917 56.3526 187.369 53.0846 187.369 49.186ZM209.987 50.132C213.714 50.132 215.577 47.896 215.577 43.424L210.503 44.542C207.98 45.1153 206.719 46.176 206.719 47.724C206.719 48.412 207.006 48.9853 207.579 49.444C208.152 49.9027 208.955 50.132 209.987 50.132Z" fill="white"/>
</g>
<g filter="url(#filter4_d_1_15)">
<path d="M168.771 32.33V41.79C168.771 44.6567 170.004 46.09 172.469 46.09H180.295C180.926 46.09 181.471 46.3193 181.929 46.778C182.388 47.2367 182.617 47.7813 182.617 48.412V59.678C182.617 60.3087 182.388 60.8533 181.929 61.312C181.471 61.7707 180.926 62 180.295 62H170.577C156.244 62 149.077 55.8367 149.077 43.51V32.33H142.283C141.653 32.33 141.108 32.1007 140.649 31.642C140.191 31.1833 139.961 30.6387 139.961 30.008V19.602C139.961 18.9713 140.191 18.4267 140.649 17.968C141.108 17.5093 141.653 17.28 142.283 17.28H149.077V3.262C149.077 2.63134 149.307 2.08667 149.765 1.628C150.224 1.16934 150.769 0.940002 151.399 0.940002H166.449C167.08 0.940002 167.625 1.16934 168.083 1.628C168.542 2.08667 168.771 2.63134 168.771 3.262V17.28H179.607C180.238 17.28 180.783 17.5093 181.241 17.968C181.7 18.4267 181.929 18.9713 181.929 19.602V30.008C181.929 30.6387 181.7 31.1833 181.241 31.642C180.783 32.1007 180.238 32.33 179.607 32.33H168.771Z" fill="white"/>
</g>
<g filter="url(#filter5_d_1_15)">
<path d="M83.7524 43.338V19.602C83.7524 18.9713 83.9818 18.4267 84.4404 17.968C84.8991 17.5093 85.4438 17.28 86.0744 17.28H102.5C103.131 17.28 103.676 17.5093 104.134 17.968C104.593 18.4267 104.822 18.9713 104.822 19.602V42.736C104.822 45.8893 106.256 47.466 109.122 47.466C111.989 47.466 113.422 45.8893 113.422 42.736V19.602C113.422 18.9713 113.652 18.4267 114.11 17.968C114.569 17.5093 115.114 17.28 115.744 17.28H132.084C132.715 17.28 133.26 17.5093 133.718 17.968C134.177 18.4267 134.406 18.9713 134.406 19.602V59.678C134.406 60.3087 134.177 60.8533 133.718 61.312C133.26 61.7707 132.715 62 132.084 62H117.034C116.404 62 115.859 61.7707 115.4 61.312C114.942 60.8533 114.712 60.3087 114.712 59.678V56.84C112.018 60.8533 107.259 62.86 100.436 62.86C95.7351 62.86 91.7791 61.226 88.5684 57.958C85.3577 54.6327 83.7524 49.7593 83.7524 43.338Z" fill="white"/>
</g>
<g filter="url(#filter6_d_1_15)">
<path d="M54.4916 31.814C53.5743 31.814 52.7716 32.158 52.0836 32.846C51.4529 33.534 51.1376 34.566 51.1376 35.942V59.678C51.1376 60.3087 50.9083 60.8533 50.4496 61.312C49.9909 61.7706 49.4463 62 48.8156 62H33.6796C33.0489 62 32.5043 61.7706 32.0456 61.312C31.5869 60.8533 31.3576 60.3087 31.3576 59.678V36.544C31.3576 33.3906 30.2109 31.814 27.9176 31.814C26.9429 31.814 26.1116 32.1867 25.4236 32.932C24.7929 33.62 24.4776 34.5947 24.4776 35.856V59.678C24.4776 60.3087 24.2483 60.8533 23.7896 61.312C23.3309 61.7706 22.7863 62 22.1556 62H6.67559C6.04492 62 5.50025 61.7706 5.04159 61.312C4.58292 60.8533 4.35359 60.3087 4.35359 59.678V19.602C4.35359 18.9713 4.58292 18.4267 5.04159 17.968C5.50025 17.5093 6.04492 17.28 6.67559 17.28H20.8656C21.4963 17.28 22.0409 17.5093 22.4996 17.968C22.9583 18.4267 23.1876 18.9713 23.1876 19.602V22.44C24.3343 20.9493 25.9683 19.602 28.0896 18.398C30.4403 17.0793 33.0776 16.42 36.0016 16.42C42.3083 16.42 46.5509 18.7707 48.7296 23.472C50.1056 21.4653 51.9976 19.8027 54.4056 18.484C56.8136 17.108 59.3076 16.42 61.8876 16.42C66.5316 16.42 70.3156 18.054 73.2396 21.322C76.2209 24.59 77.7116 29.4633 77.7116 35.942V59.678C77.7116 60.3087 77.4823 60.8533 77.0236 61.312C76.5649 61.7706 76.0203 62 75.3896 62H60.2536C59.6229 62 59.0783 61.7706 58.6196 61.312C58.1609 60.8533 57.9316 60.3087 57.9316 59.678V36.544C57.9316 33.3906 56.7849 31.814 54.4916 31.814Z" fill="white"/>
</g>
<defs>
<filter id="filter0_d_1_15" x="318.947" y="16.42" width="57.02" height="54.44" filterUnits="userSpaceOnUse" color-interpolation-filters="sRGB">
<feFlood flood-opacity="0" result="BackgroundImageFix"/>
<feColorMatrix in="SourceAlpha" type="matrix" values="0 0 0 0 0 0 0 0 0 0 0 0 0 0 0 0 0 0 127 0" result="hardAlpha"/>
<feOffset dy="4"/>
<feGaussianBlur stdDeviation="2"/>
<feComposite in2="hardAlpha" operator="out"/>
<feColorMatrix type="matrix" values="0 0 0 0 0 0 0 0 0 0 0 0 0 0 0 0 0 0 0.25 0"/>
<feBlend mode="normal" in2="BackgroundImageFix" result="effect1_dropShadow_1_15"/>
<feBlend mode="normal" in="SourceGraphic" in2="effect1_dropShadow_1_15" result="shape"/>
</filter>
<filter id="filter1_d_1_15" x="293.318" y="0.940002" width="28.038" height="69.06" filterUnits="userSpaceOnUse" color-interpolation-filters="sRGB">
<feFlood flood-opacity="0" result="BackgroundImageFix"/>
<feColorMatrix in="SourceAlpha" type="matrix" values="0 0 0 0 0 0 0 0 0 0 0 0 0 0 0 0 0 0 127 0" result="hardAlpha"/>
<feOffset dy="4"/>
<feGaussianBlur stdDeviation="2"/>
<feComposite in2="hardAlpha" operator="out"/>
<feColorMatrix type="matrix" values="0 0 0 0 0 0 0 0 0 0 0 0 0 0 0 0 0 0 0.25 0"/>
<feBlend mode="normal" in2="BackgroundImageFix" result="effect1_dropShadow_1_15"/>
<feBlend mode="normal" in="SourceGraphic" in2="effect1_dropShadow_1_15" result="shape"/>
</filter>
<filter id="filter2_d_1_15" x="237.509" y="0.940002" width="58.224" height="69.92" filterUnits="userSpaceOnUse" color-interpolation-filters="sRGB">
<feFlood flood-opacity="0" result="BackgroundImageFix"/>
<feColorMatrix in="SourceAlpha" type="matrix" values="0 0 0 0 0 0 0 0 0 0 0 0 0 0 0 0 0 0 127 0" result="hardAlpha"/>
<feOffset dy="4"/>
<feGaussianBlur stdDeviation="2"/>
<feComposite in2="hardAlpha" operator="out"/>
<feColorMatrix type="matrix" values="0 0 0 0 0 0 0 0 0 0 0 0 0 0 0 0 0 0 0.25 0"/>
<feBlend mode="normal" in2="BackgroundImageFix" result="effect1_dropShadow_1_15"/>
<feBlend mode="normal" in="SourceGraphic" in2="effect1_dropShadow_1_15" result="shape"/>
</filter>
<filter id="filter3_d_1_15" x="183.369" y="16.42" width="56.59" height="54.44" filterUnits="userSpaceOnUse" color-interpolation-filters="sRGB">
<feFlood flood-opacity="0" result="BackgroundImageFix"/>
<feColorMatrix in="SourceAlpha" type="matrix" values="0 0 0 0 0 0 0 0 0 0 0 0 0 0 0 0 0 0 127 0" result="hardAlpha"/>
<feOffset dy="4"/>
<feGaussianBlur stdDeviation="2"/>
<feComposite in2="hardAlpha" operator="out"/>
<feColorMatrix type="matrix" values="0 0 0 0 0 0 0 0 0 0 0 0 0 0 0 0 0 0 0.25 0"/>
<feBlend mode="normal" in2="BackgroundImageFix" result="effect1_dropShadow_1_15"/>
<feBlend mode="normal" in="SourceGraphic" in2="effect1_dropShadow_1_15" result="shape"/>
</filter>
<filter id="filter4_d_1_15" x="135.961" y="0.940002" width="50.656" height="69.06" filterUnits="userSpaceOnUse" color-interpolation-filters="sRGB">
<feFlood flood-opacity="0" result="BackgroundImageFix"/>
<feColorMatrix in="SourceAlpha" type="matrix" values="0 0 0 0 0 0 0 0 0 0 0 0 0 0 0 0 0 0 127 0" result="hardAlpha"/>
<feOffset dy="4"/>
<feGaussianBlur stdDeviation="2"/>
<feComposite in2="hardAlpha" operator="out"/>
<feColorMatrix type="matrix" values="0 0 0 0 0 0 0 0 0 0 0 0 0 0 0 0 0 0 0.25 0"/>
<feBlend mode="normal" in2="BackgroundImageFix" result="effect1_dropShadow_1_15"/>
<feBlend mode="normal" in="SourceGraphic" in2="effect1_dropShadow_1_15" result="shape"/>
</filter>
<filter id="filter5_d_1_15" x="79.7524" y="17.28" width="58.654" height="53.58" filterUnits="userSpaceOnUse" color-interpolation-filters="sRGB">
<feFlood flood-opacity="0" result="BackgroundImageFix"/>
<feColorMatrix in="SourceAlpha" type="matrix" values="0 0 0 0 0 0 0 0 0 0 0 0 0 0 0 0 0 0 127 0" result="hardAlpha"/>
<feOffset dy="4"/>
<feGaussianBlur stdDeviation="2"/>
<feComposite in2="hardAlpha" operator="out"/>
<feColorMatrix type="matrix" values="0 0 0 0 0 0 0 0 0 0 0 0 0 0 0 0 0 0 0.25 0"/>
<feBlend mode="normal" in2="BackgroundImageFix" result="effect1_dropShadow_1_15"/>
<feBlend mode="normal" in="SourceGraphic" in2="effect1_dropShadow_1_15" result="shape"/>
</filter>
<filter id="filter6_d_1_15" x="0.353588" y="16.42" width="81.358" height="53.58" filterUnits="userSpaceOnUse" color-interpolation-filters="sRGB">
<feFlood flood-opacity="0" result="BackgroundImageFix"/>
<feColorMatrix in="SourceAlpha" type="matrix" values="0 0 0 0 0 0 0 0 0 0 0 0 0 0 0 0 0 0 127 0" result="hardAlpha"/>
<feOffset dy="4"/>
<feGaussianBlur stdDeviation="2"/>
<feComposite in2="hardAlpha" operator="out"/>
<feColorMatrix type="matrix" values="0 0 0 0 0 0 0 0 0 0 0 0 0 0 0 0 0 0 0.25 0"/>
<feBlend mode="normal" in2="BackgroundImageFix" result="effect1_dropShadow_1_15"/>
<feBlend mode="normal" in="SourceGraphic" in2="effect1_dropShadow_1_15" result="shape"/>
</filter>
</defs>
</svg>
