<svg width="694" height="694" viewBox="0 0 694 694" fill="none" xmlns="http://www.w3.org/2000/svg">
<path d="M286.291 0C128.69 0 0 128.691 0 286.291C0 443.89 128.69 572.582 286.291 572.582C349.552 572.582 408.242 552.022 455.733 517.004L620.026 681.296C636.964 698.233 664.356 698.236 681.296 681.296C698.235 664.357 698.235 636.964 681.296 620.026L517.005 455.734C552.022 408.242 572.582 349.551 572.582 286.291C572.582 128.691 443.89 0 286.291 0ZM286.291 86.7548C397.003 86.7548 485.827 175.577 485.827 286.291C485.827 397.003 397.003 485.827 286.291 485.827C175.578 485.827 86.7548 397.003 86.7548 286.291C86.7548 175.577 175.578 86.7548 286.291 86.7548Z" fill="white"/>
<path d="M219 242.953C238.882 242.953 255 227.286 255 207.96C255 188.634 238.882 172.967 219 172.967C199.118 172.967 183 188.634 183 207.96C183 227.286 199.118 242.953 219 242.953Z" fill="white"/>
<path d="M350.5 242.953C370.106 242.953 386 227.286 386 207.96C386 188.634 370.106 172.967 350.5 172.967C330.894 172.967 315 188.634 315 207.96C315 227.286 330.894 242.953 350.5 242.953Z" fill="white"/>
<path d="M206.851 304.188L328.164 425.477L361.49 392.157L240.177 270.868L206.851 304.188Z" fill="white"/>
<path d="M240.154 425.478L361.467 304.189L328.141 270.869L206.828 392.158L240.154 425.478Z" fill="white"/>
</svg>
