<svg width="694" height="695" viewBox="0 0 694 695" fill="none" xmlns="http://www.w3.org/2000/svg">
<path d="M286.291 0C128.69 0 0 128.716 0 286.346C0 443.975 128.69 572.692 286.291 572.692C349.552 572.692 408.242 552.129 455.733 517.104L620.026 681.428C636.964 698.368 664.356 698.371 681.296 681.428C698.235 664.486 698.235 637.088 681.296 620.145L517.005 455.822C552.022 408.321 572.582 349.619 572.582 286.346C572.582 128.716 443.89 0 286.291 0ZM286.291 86.7716C397.003 86.7716 485.827 175.611 485.827 286.346C485.827 397.08 397.003 485.921 286.291 485.921C175.578 485.921 86.7548 397.08 86.7548 286.346C86.7548 175.611 175.578 86.7716 286.291 86.7716Z" fill="#BE1E2D"/>
<path d="M219 243C238.882 243 255 227.33 255 208C255 188.67 238.882 173 219 173C199.118 173 183 188.67 183 208C183 227.33 199.118 243 219 243Z" fill="#BE1E2D"/>
<path d="M350.5 243C370.106 243 386 227.33 386 208C386 188.67 370.106 173 350.5 173C330.894 173 315 188.67 315 208C315 227.33 330.894 243 350.5 243Z" fill="#BE1E2D"/>
<path d="M206.851 304.247L328.164 425.559L361.49 392.233L240.177 270.921L206.851 304.247Z" fill="#BE1E2D"/>
<path d="M240.154 425.56L361.467 304.248L328.141 270.922L206.828 392.234L240.154 425.56Z" fill="#BE1E2D"/>
</svg>
